<?xml version="1.0" encoding="UTF-8"?>
<svg version="1.1" xmlns="http://www.w3.org/2000/svg" width="606" height="412">
<path d="M0 0 C0.24234375 0.73863281 0.4846875 1.47726563 0.734375 2.23828125 C1.81074912 5.49638293 2.90240371 8.74898814 4 12 C4.45052734 13.34578125 4.45052734 13.34578125 4.91015625 14.71875 C13.90946254 41.11974587 13.90946254 41.11974587 31 61 C31 61.99 31 62.98 31 64 C31.66 64 32.32 64 33 64 C33.226875 64.5775 33.45375 65.155 33.6875 65.75 C35.32281069 68.55338976 37.47226728 70.00442154 40 72 C40 72.66 40 73.32 40 74 C40.66 74 41.32 74 42 74 C42.0928125 74.928125 42.0928125 74.928125 42.1875 75.875 C42.5896875 76.926875 42.5896875 76.926875 43 78 C43.70125 78.268125 44.4025 78.53625 45.125 78.8125 C48.09128004 80.03770262 49.25674737 81.09753994 51.4375 83.375 C54.97919382 87.06935304 58.75562095 89.66396311 63.15234375 92.28125 C63.88582031 92.7246875 64.61929688 93.168125 65.375 93.625 C66.06335938 94.02976562 66.75171875 94.43453125 67.4609375 94.8515625 C67.96882812 95.23054688 68.47671875 95.60953125 69 96 C69 96.66 69 97.32 69 98 C69.7321875 98.10699219 70.464375 98.21398437 71.21875 98.32421875 C74.19909052 99.04837452 75.97243419 100.10293066 78.5 101.8125 C83.43614067 104.90128263 88.32076381 106.53232423 93.921875 108.04296875 C97.16824019 109.05230818 99.97787771 110.45427214 103 112 C116.05587011 116.88746611 134.08231459 119.81945972 148 118 C148.66 117.34 149.32 116.68 150 116 C154.63448199 114.95068332 157.82446266 114.56426988 162 117 C163.875 118.6875 163.875 118.6875 165 121 C164.93077498 124.8766012 164.57068274 127.19681688 162.3125 130.375 C159.44974313 132.38666699 157.48588499 132.85475479 154 133 C151.625 132.0625 151.625 132.0625 150 131 C150 130.34 150 129.68 150 129 C137.0505013 129.02900224 126.14311145 130.95560851 113.96191406 135.3203125 C111.60834348 136.13568588 109.22571528 136.76160749 106.8125 137.375 C100.082541 139.33691384 93.93518622 142.92849373 87.73974609 146.14501953 C86 147 86 147 83.20703125 148.05859375 C80.83038575 149.07234873 79.7444514 150.1299481 78 152 C76.54596443 153.07646832 75.06467411 154.11679545 73.5625 155.125 C72.80066406 155.64320313 72.03882813 156.16140625 71.25390625 156.6953125 C69 158 69 158 66.77734375 158.4921875 C66.19082031 158.65976563 65.60429687 158.82734375 65 159 C64.67 159.99 64.34 160.98 64 162 C62.3984375 163.359375 62.3984375 163.359375 60.375 164.75 C56.14087116 167.80251149 52.6055405 171.24311583 49 175 C47.7625 176.2065625 47.7625 176.2065625 46.5 177.4375 C40.62172104 183.46273593 35.62538693 189.7467937 31.02050781 196.78320312 C30.06162942 198.22194537 29.03604664 199.61579105 28 201 C27.34 201 26.68 201 26 201 C25.7421875 202.04285156 25.484375 203.08570313 25.21875 204.16015625 C24.19589893 207.73029989 22.6232659 210.37007693 20.5 213.4375 C13.79519787 223.9437404 7.72904134 236.79487375 5 249 C2.36 248.67 -0.28 248.34 -3 248 C-3.81476636 240.83005599 -0.86602783 235.44648579 2 229 C2.61076229 227.39833291 3.21531401 225.79427844 3.8125 224.1875 C6.13008784 218.32199991 9.18006385 212.84838953 12.1953125 207.3203125 C13.5120511 204.89774147 14.79231937 202.47761283 16 200 C16.66 200 17.32 200 18 200 C18.23589844 199.13890625 18.47179687 198.2778125 18.71484375 197.390625 C20.13204642 193.65162221 22.09141644 190.83487185 24.5625 187.75 C25.00287598 187.18861328 25.44325195 186.62722656 25.89697266 186.04882812 C29.41763173 181.60990055 33.13786818 177.37174351 36.9921875 173.21875 C38.41376797 171.64782061 39.77623898 170.02246024 41.09375 168.36328125 C43.16743723 165.79241901 45.31107445 163.91055236 48 162 C48.66 162 49.32 162 50 162 C50.33 161.01 50.66 160.02 51 159 C53.1796875 156.95703125 53.1796875 156.95703125 55.875 154.8125 C56.75929688 154.09707031 57.64359375 153.38164062 58.5546875 152.64453125 C61 151 61 151 64 151 C64.33 150.01 64.66 149.02 65 148 C67.0625 147.3125 67.0625 147.3125 69 147 C69 146.34 69 145.68 69 145 C69.65226563 144.68546875 70.30453125 144.3709375 70.9765625 144.046875 C74.85958753 142.14545271 78.58512625 140.2765825 82.1875 137.875 C85.37055716 135.75296189 88.4548307 134.41806772 92 133 C85.52225146 133.99984953 79.29875089 135.16763611 73 137 C71.2720972 137.27878304 69.54276434 137.54877025 67.8125 137.8125 C62.46109547 138.73616708 57.86752616 140.58359451 52.91796875 142.7734375 C49.52087248 144.20140032 46.11134078 145.21250991 42.546875 146.12890625 C38.84729581 147.39425312 35.47298467 149.21658628 32 151 C30.66804148 151.65773934 29.33472262 152.31273173 28 152.96484375 C19.409121 157.14750694 19.409121 157.14750694 11.1875 162 C8 164 8 164 5 164 C4.67 164.99 4.34 165.98 4 167 C1.34765625 169.04296875 1.34765625 169.04296875 -1.9375 171.1875 C-3.01902344 171.90292969 -4.10054688 172.61835938 -5.21484375 173.35546875 C-8 175 -8 175 -10 175 C-10 175.66 -10 176.32 -10 177 C-11.36284236 178.19248706 -12.73501467 179.3757345 -14.1484375 180.5078125 C-18.4063541 183.93929803 -22.55838379 187.52044652 -26.375 191.4375 C-28 193 -28 193 -30 193 C-30 193.66 -30 194.32 -30 195 C-30.66 195 -31.32 195 -32 195 C-32.37125 196.11375 -32.37125 196.11375 -32.75 197.25 C-34.10465039 200.23023087 -35.5101541 201.89919252 -38 204 C-38.66 204 -39.32 204 -40 204 C-40.4640625 204.928125 -40.4640625 204.928125 -40.9375 205.875 C-41.625 207.25 -42.3125 208.625 -43 210 C-48.75 208.25 -48.75 208.25 -51 206 C-50.875 204 -50.875 204 -50 202 C-49.360625 201.690625 -48.72125 201.38125 -48.0625 201.0625 C-45.77758574 200.17968172 -45.77758574 200.17968172 -45.171875 197.74609375 C-43.73002346 194.36735498 -41.83133701 192.53681512 -39.1875 190 C-38.33542969 189.175 -37.48335937 188.35 -36.60546875 187.5 C-35.74566406 186.675 -34.88585937 185.85 -34 185 C-31.55081645 182.56864165 -29.12344319 180.13030114 -26.75 177.625 C-23.05999229 174.10271991 -19.06235577 171.0777509 -15 168 C-14.38382813 167.51660156 -13.76765625 167.03320312 -13.1328125 166.53515625 C-4.35430778 159.73464079 5.26453926 153.90688867 14.828125 148.28125 C16.20526549 147.46883619 17.57157679 146.63753667 18.921875 145.78125 C23.05173746 143.22292812 26.25004891 142.38775111 31 142 C31 141.34 31 140.68 31 140 C33.64547525 139.06147893 36.29129086 138.12394827 38.9375 137.1875 C40.10478638 136.77419434 40.10478638 136.77419434 41.2956543 136.35253906 C45.28847705 134.94276774 49.28508288 133.55857156 53.3125 132.25 C57.12547693 131.05092359 57.12547693 131.05092359 61 129 C16.12 128.67 -28.76 128.34 -75 128 C-75 121 -75 121 -74 119 C-28.79 118.67 16.42 118.34 63 118 C54.585 115.03 54.585 115.03 46 112 C43.69 111.01 41.38 110.02 39 109 C37.31501718 108.32699658 35.62776812 107.65961683 33.9375 107 C30.18277041 105.50375437 26.58765834 103.86857205 23 102 C22.35546875 101.69964844 21.7109375 101.39929688 21.046875 101.08984375 C15.06296816 98.25054101 9.40761627 94.93163138 3.75 91.5 C2.98139648 91.03722656 2.21279297 90.57445312 1.42089844 90.09765625 C-3.05174848 87.3554168 -7.02284313 84.41657838 -11 81 C-11.94875 80.443125 -12.8975 79.88625 -13.875 79.3125 C-14.57625 78.879375 -15.2775 78.44625 -16 78 C-16 77.34 -16 76.68 -16 76 C-16.8353125 75.5978125 -16.8353125 75.5978125 -17.6875 75.1875 C-22.64581154 72.64134002 -25.52178243 70.37261638 -29 66 C-31.09224312 64.13350951 -33.22579124 62.33242363 -35.390625 60.55078125 C-35.92171875 60.03902344 -36.4528125 59.52726562 -37 59 C-37 58.34 -37 57.68 -37 57 C-37.99 56.67 -38.98 56.34 -40 56 C-41.68359375 54.328125 -41.68359375 54.328125 -43.4375 52.25 C-44.0459375 51.53070313 -44.654375 50.81140625 -45.28125 50.0703125 C-45.8484375 49.38710937 -46.415625 48.70390625 -47 48 C-47.804375 47.05125 -48.60875 46.1025 -49.4375 45.125 C-51 43 -51 43 -51 41 C-48.69 39.68 -46.38 38.36 -44 37 C-43.7525 37.61875 -43.505 38.2375 -43.25 38.875 C-42.21630538 41.10606829 -42.21630538 41.10606829 -40.26953125 41.76171875 C-37.02185184 43.53368841 -34.85243878 46.19665855 -32.4375 48.9375 C-28.90136349 52.94350461 -28.90136349 52.94350461 -25.16015625 56.75390625 C-24 58 -24 58 -24 60 C-23.46375 60.061875 -22.9275 60.12375 -22.375 60.1875 C-18.47007398 61.52339574 -14.8683015 64.26339701 -13 68 C-12.01 68.33 -11.02 68.66 -10 69 C-10 69.66 -10 70.32 -10 71 C-9.443125 71.061875 -8.88625 71.12375 -8.3125 71.1875 C-5.07056423 72.32655851 -3.4156959 74.5843041 -1 77 C2.16645474 78.79320824 2.16645474 78.79320824 5 80 C5 80.66 5 81.32 5 82 C5.9075 82.268125 6.815 82.53625 7.75 82.8125 C11 84 11 84 12.69921875 85.3203125 C15.93788232 87.68470186 19.46230148 89.31586903 23.0625 91.0625 C24.49178887 91.75987013 25.92020915 92.45902392 27.34765625 93.16015625 C27.97679932 93.46574463 28.60594238 93.77133301 29.25415039 94.08618164 C31 95 31 95 34 97 C35.36131533 97.49750881 36.73853905 97.9526015 38.125 98.375 C41.31501771 99.3921071 44.29184432 100.55844847 47.3125 102 C54.18294707 105.15147045 61.6151174 106.55806124 69 108 C62.68009494 103.35252811 62.68009494 103.35252811 55.875 99.5 C52.40080135 97.68737462 49.80835802 95.35464108 46.9296875 92.71875 C45.00867638 90.94457959 45.00867638 90.94457959 42.7578125 89.40625 C42.17773438 88.9421875 41.59765625 88.478125 41 88 C41 87.34 41 86.68 41 86 C39.515 85.505 39.515 85.505 38 85 C38 84.34 38 83.68 38 83 C37.12601563 82.62875 37.12601563 82.62875 36.234375 82.25 C33.66885764 80.81474554 32.16275202 79.22336987 30.25 77 C29.63640625 76.29875 29.0228125 75.5975 28.390625 74.875 C27 73 27 73 27 71 C26.4225 70.79375 25.845 70.5875 25.25 70.375 C22.15522364 68.48374778 20.8081237 66.09964063 19 63 C19 62.34 19 61.68 19 61 C18.34 61 17.68 61 17 61 C15.484375 58.7265625 15.484375 58.7265625 13.75 55.625 C11.57738176 51.77354039 9.36959144 47.9827435 7 44.25 C3.27594785 38.07643762 0.54386675 31.4693916 -2.22900391 24.83007812 C-2.88674072 23.26883836 -3.57148576 21.71902262 -4.26171875 20.171875 C-6.96997346 13.92980096 -8.12093291 7.73180321 -9 1 C-6.04335481 -0.4783226 -3.25770263 -0.06032783 0 0 Z " fill="#CFCFCC" transform="translate(257,83)"/>
<path d="M0 0 C0.36351562 1.10794922 0.36351562 1.10794922 0.734375 2.23828125 C1.81074912 5.49638293 2.90240371 8.74898814 4 12 C4.30035156 12.8971875 4.60070312 13.794375 4.91015625 14.71875 C13.90946254 41.11974587 13.90946254 41.11974587 31 61 C31 61.99 31 62.98 31 64 C31.66 64 32.32 64 33 64 C33.3403125 64.86625 33.3403125 64.86625 33.6875 65.75 C35.32281069 68.55338976 37.47226728 70.00442154 40 72 C40 72.66 40 73.32 40 74 C40.66 74 41.32 74 42 74 C42.0928125 74.928125 42.0928125 74.928125 42.1875 75.875 C42.455625 76.57625 42.72375 77.2775 43 78 C44.6635479 78.67441131 46.33066942 79.3400321 48 80 C50.3125 82.625 50.3125 82.625 52 85 C49.36 84.67 46.72 84.34 44 84 C44.33 85.98 44.66 87.96 45 90 C43.68 89.34 42.36 88.68 41 88 C41 87.34 41 86.68 41 86 C40.01 85.67 39.02 85.34 38 85 C38 84.34 38 83.68 38 83 C37.12601562 82.62875 37.12601562 82.62875 36.234375 82.25 C33.66885764 80.81474554 32.16275202 79.22336987 30.25 77 C29.32960938 75.948125 29.32960938 75.948125 28.390625 74.875 C27 73 27 73 27 71 C26.4225 70.79375 25.845 70.5875 25.25 70.375 C22.15522364 68.48374778 20.8081237 66.09964063 19 63 C19 62.34 19 61.68 19 61 C18.34 61 17.68 61 17 61 C15.484375 58.7265625 15.484375 58.7265625 13.75 55.625 C11.57738176 51.77354039 9.36959144 47.9827435 7 44.25 C3.27594785 38.07643762 0.54386675 31.4693916 -2.22900391 24.83007812 C-2.88674072 23.26883836 -3.57148576 21.71902262 -4.26171875 20.171875 C-6.96997346 13.92980096 -8.12093291 7.73180321 -9 1 C-6.04335481 -0.4783226 -3.25770263 -0.06032783 0 0 Z " fill="#C2C2BF" transform="translate(257,83)"/>
<path d="M0 0 C0.99 0.33 1.98 0.66 3 1 C1.7625 1.6496875 1.7625 1.6496875 0.5 2.3125 C-0.7375 3.1478125 -0.7375 3.1478125 -2 4 C-2.15811388 7.05270463 -2.15811388 7.05270463 -1 10 C-0.34 10 0.32 10 1 10 C1 9.34 1 8.68 1 8 C4.465 7.505 4.465 7.505 8 7 C6.7572413 9.4855174 5.89265964 9.68698495 3.39453125 10.8046875 C2.65783203 11.14113281 1.92113281 11.47757813 1.16210938 11.82421875 C0.38673828 12.17097656 -0.38863281 12.51773438 -1.1875 12.875 C-7.48795821 15.67893526 -7.48795821 15.67893526 -13.36328125 19.2578125 C-16 21 -16 21 -19 21 C-19.495 22.485 -19.495 22.485 -20 24 C-22.65234375 26.04296875 -22.65234375 26.04296875 -25.9375 28.1875 C-27.01902344 28.90292969 -28.10054687 29.61835938 -29.21484375 30.35546875 C-32 32 -32 32 -34 32 C-34 32.66 -34 33.32 -34 34 C-35.36284236 35.19248706 -36.73501467 36.3757345 -38.1484375 37.5078125 C-42.4063541 40.93929803 -46.55838379 44.52044652 -50.375 48.4375 C-52 50 -52 50 -54 50 C-54 50.66 -54 51.32 -54 52 C-54.66 52 -55.32 52 -56 52 C-56.2475 52.7425 -56.495 53.485 -56.75 54.25 C-58.10465039 57.23023087 -59.5101541 58.89919252 -62 61 C-62.66 61 -63.32 61 -64 61 C-64.309375 61.61875 -64.61875 62.2375 -64.9375 62.875 C-65.625 64.25 -66.3125 65.625 -67 67 C-72.75 65.25 -72.75 65.25 -75 63 C-74.875 61 -74.875 61 -74 59 C-73.360625 58.690625 -72.72125 58.38125 -72.0625 58.0625 C-69.77758574 57.17968172 -69.77758574 57.17968172 -69.171875 54.74609375 C-67.73002346 51.36735498 -65.83133701 49.53681512 -63.1875 47 C-62.33542969 46.175 -61.48335937 45.35 -60.60546875 44.5 C-59.74566406 43.675 -58.88585937 42.85 -58 42 C-55.55081645 39.56864165 -53.12344319 37.13030114 -50.75 34.625 C-47.05999229 31.10271991 -43.06235577 28.0777509 -39 25 C-38.38382813 24.51660156 -37.76765625 24.03320312 -37.1328125 23.53515625 C-28.35821904 16.73767075 -18.74428955 10.91625108 -9.1875 5.2890625 C-7.75997735 4.44784379 -6.34258734 3.58911709 -4.9375 2.7109375 C-3.33637708 1.73024971 -1.67248533 0.85330884 0 0 Z " fill="#C2C3C0" transform="translate(281,226)"/>
<path d="M0 0 C0.99 0.66 1.98 1.32 3 2 C3 2.66 3 3.32 3 4 C3.54527344 4.20753906 4.09054688 4.41507812 4.65234375 4.62890625 C7.88316611 6.51579252 10.11601831 9.16085883 12.5625 11.9375 C16.09863651 15.94350461 16.09863651 15.94350461 19.83984375 19.75390625 C21 21 21 21 21 23 C21.53625 23.061875 22.0725 23.12375 22.625 23.1875 C26.52992602 24.52339574 30.1316985 27.26339701 32 31 C32.99 31.33 33.98 31.66 35 32 C34.505 32.99 34.505 32.99 34 34 C33.01 33.505 33.01 33.505 32 33 C30.78309467 34.76529595 30.78309467 34.76529595 30 37 C30.94226655 39.66975522 31.98615798 40.98615798 34 43 C32.0625 42.6875 32.0625 42.6875 30 42 C29.67 41.01 29.34 40.02 29 39 C27.20067421 37.93283296 27.20067421 37.93283296 25 37 C20.91853343 34.85723005 18.84850227 32.58097428 16 29 C13.90775688 27.13350951 11.77420876 25.33242363 9.609375 23.55078125 C8.81273437 22.78314453 8.81273437 22.78314453 8 22 C8 21.34 8 20.68 8 20 C7.01 19.67 6.02 19.34 5 19 C3.31640625 17.328125 3.31640625 17.328125 1.5625 15.25 C0.9540625 14.53070313 0.345625 13.81140625 -0.28125 13.0703125 C-1.13203125 12.04550781 -1.13203125 12.04550781 -2 11 C-2.804375 10.05125 -3.60875 9.1025 -4.4375 8.125 C-6 6 -6 6 -6 4 C-4.03852126 2.61061923 -2.03833424 1.2739589 0 0 Z " fill="#C5C5C2" transform="translate(212,120)"/>
<path d="M0 0 C1.3479743 0.63654342 2.68596724 1.29605388 4 2 C4 2.99 4 3.98 4 5 C4.78375 5.2475 5.5675 5.495 6.375 5.75 C9.32317108 7.15389099 9.9024777 8.00675737 11 11 C10.01 11.99 9.02 12.98 8 14 C3.34434058 12.39961708 -1.32034567 10.31856675 -5 7 C-6 3.1875 -6 3.1875 -6 0 C-3.44901433 -1.27549283 -2.66705587 -0.86287102 0 0 Z " fill="#EEEEEA" transform="translate(307,167)"/>
<path d="M0 0 C0.66 0.33 1.32 0.66 2 1 C-1.55015735 5.59506182 -4.47710509 8.76454254 -10 11 C-8.52171103 7.10269271 -6.51457112 6.05730992 -3 4 C-1.21655822 1.93045153 -1.21655822 1.93045153 0 0 Z " fill="#474745" transform="translate(234,257)"/>
<path d="M0 0 C-4.20872298 2.17692568 -7.43483879 3.12422287 -12.1875 3.0625 C-13.53908203 3.04896484 -13.53908203 3.04896484 -14.91796875 3.03515625 C-15.60503906 3.02355469 -16.29210937 3.01195312 -17 3 C-17 2.67 -17 2.34 -17 2 C-5.47835991 -0.29612756 -5.47835991 -0.29612756 0 0 Z " fill="#343532" transform="translate(358,213)"/>
<path d="M0 0 C0.33 0.66 0.66 1.32 1 2 C0.00390625 4.1640625 0.00390625 4.1640625 -1.4375 6.625 C-1.91058594 7.44226563 -2.38367188 8.25953125 -2.87109375 9.1015625 C-3.24363281 9.72804688 -3.61617188 10.35453125 -4 11 C-4.66 9.68 -5.32 8.36 -6 7 C-4.02 4.69 -2.04 2.38 0 0 Z " fill="#7F807B" transform="translate(276,295)"/>
<path d="M0 0 C2.125 0.375 2.125 0.375 4 1 C2.35 2.65 0.7 4.3 -1 6 C-1.625 4.125 -1.625 4.125 -2 2 C-1.34 1.34 -0.68 0.68 0 0 Z " fill="#A2A3A1" transform="translate(293,266)"/>
<path d="M0 0 C0.99 0.33 1.98 0.66 3 1 C3 1.66 3 2.32 3 3 C1.04072937 4.7143618 -0.95880212 6.38405168 -3 8 C-3.66 7.67 -4.32 7.34 -5 7 C-4.54625 6.401875 -4.0925 5.80375 -3.625 5.1875 C-2.36704087 3.49409348 -1.17015276 1.75522914 0 0 Z " fill="#666763" transform="translate(244,257)"/>
<path d="M0 0 C0.66 0 1.32 0 2 0 C2.680625 1.423125 2.680625 1.423125 3.375 2.875 C4.80238254 6.00313679 4.80238254 6.00313679 7 8 C5.0625 7.6875 5.0625 7.6875 3 7 C2.67 6.01 2.34 5.02 2 4 C1.01 3.67 0.02 3.34 -1 3 C-0.67 2.01 -0.34 1.02 0 0 Z " fill="#797A76" transform="translate(239,155)"/>
<path d="M0 0 C0.33 0.66 0.66 1.32 1 2 C0.06421005 4.35981813 -0.93347808 6.69631264 -2 9 C-2.66 9 -3.32 9 -4 9 C-2.25 2.25 -2.25 2.25 0 0 Z " fill="#777874" transform="translate(272,286)"/>
<path d="M0 0 C0.66 0.66 1.32 1.32 2 2 C1.01 2.33 0.02 2.66 -1 3 C-2.21869929 5.50447516 -2.21869929 5.50447516 -3 8 C-3.99 7.34 -4.98 6.68 -6 6 C-6 5.34 -6 4.68 -6 4 C-4.03852126 2.61061923 -2.03833424 1.2739589 0 0 Z " fill="#60605E" transform="translate(212,120)"/>
</svg>
